# Blender v2.79 (sub 0) OBJ File: ''
# www.blender.org
o Floor_Plane
v 10.000000 -0.000002 10.000000
v -10.000000 0.000002 -10.000000
v -10.000000 -0.000002 10.000000
v 10.000000 0.000002 -10.000000
vt 0.000100 0.000100
vt 0.999900 0.999900
vt 0.000100 0.999900
vt 0.999900 0.000100
vn 0.0000 1.0000 0.0000
s 1
f 1/1/1 2/2/1 3/3/1
f 1/1/1 4/4/1 2/2/1
o Wall_1_Plane.002
v 10.000000 0.000002 -10.000000
v -10.000000 10.000002 -9.999998
v -10.000000 0.000002 -10.000000
v 10.000000 10.000002 -9.999998
vt 0.999929 0.000071
vt 0.000071 0.500000
vt 0.000071 0.000071
vt 0.999929 0.500000
vn 0.0000 -0.0000 1.0000
s 1
f 5/5/2 6/6/2 7/7/2
f 5/5/2 8/8/2 6/6/2
o Wall_0_Plane.001
v 10.000000 0.000002 9.999999
v 10.000000 9.999998 -10.000003
v 10.000001 -0.000002 -10.000001
v 9.999999 10.000002 9.999997
vt 0.000071 0.000071
vt 0.500000 0.999929
vt 0.000071 0.999929
vt 0.500000 0.000071
vn -1.0000 -0.0000 -0.0000
s 1
f 9/9/3 10/10/3 11/11/3
f 9/9/3 12/12/3 10/10/3
o Icosphere
v 2.820737 1.000000 0.558065
v 3.671382 1.298692 1.176088
v 2.495826 1.298691 1.558056
v 4.267952 2.105561 1.609516
v 4.522033 1.948528 0.558065
v 1.769278 1.298697 0.558065
v 2.495826 1.298691 -0.441925
v 3.671382 1.298692 -0.059958
v 4.722853 3.000000 1.176090
v 2.267961 2.105560 2.259364
v 3.346475 1.948525 2.176088
v 2.820737 3.000000 2.558065
v 1.031885 2.105569 0.558065
v 1.444358 1.948528 1.558059
v 0.918621 3.000000 1.176090
v 2.267961 2.105560 -1.143233
v 1.444358 1.948528 -0.441929
v 1.645166 3.000000 -1.059968
v 4.267952 2.105561 -0.493386
v 3.346475 1.948525 -1.059958
v 3.996308 3.000000 -1.059968
v 3.996308 3.000000 2.176099
v 1.645166 3.000000 2.176099
v 0.918621 3.000000 -0.059960
v 2.820737 3.000000 -1.441934
v 4.722853 3.000000 -0.059960
v 3.373513 3.894439 2.259365
v 4.197116 4.051473 1.558060
v 3.145648 4.701309 1.558057
v 1.373523 3.894439 1.609517
v 2.295000 4.051476 2.176089
v 1.970092 4.701308 1.176089
v 1.373523 3.894439 -0.493385
v 1.119441 4.051472 0.558066
v 1.970092 4.701308 -0.059957
v 3.373513 3.894440 -1.143232
v 2.295000 4.051476 -1.059957
v 3.145648 4.701309 -0.441924
v 4.609590 3.894431 0.558066
v 4.197116 4.051473 -0.441928
v 3.872197 4.701303 0.558066
v 2.820737 5.000000 0.558066
vt 0.997065 0.187220
vt 0.869138 0.259582
vt 0.798856 0.067713
vt 0.799475 0.391503
vt 0.883645 0.457952
vt 1.176998 0.146011
vt 1.087467 0.312828
vt 0.975214 0.360543
vt 0.799557 0.567713
vt 0.601846 0.187770
vt 0.729667 0.259829
vt 0.623774 0.361065
vt 0.299665 0.256080
vt 0.422473 0.146416
vt 0.395623 0.343390
vt 0.136022 0.464346
vt 0.203555 0.343057
vt 0.215372 0.541752
vt 0.963043 0.535152
vt 1.049524 0.499707
vt 1.011627 0.686605
vt 0.715372 0.458248
vt 0.511627 0.313395
vt 0.299557 0.432288
vt 0.123774 0.638935
vt 0.895623 0.656610
vt 0.636022 0.535654
vt 0.703555 0.656943
vt 0.587467 0.687172
vt 0.463043 0.464849
vt 0.549524 0.500294
vt 0.475214 0.639457
vt 0.299475 0.608497
vt 0.383645 0.542048
vt 0.369138 0.740418
vt 0.101846 0.812230
vt 0.229667 0.740171
vt 0.298856 0.932287
vt 0.799665 0.743920
vt 0.922473 0.853584
vt 0.676998 0.853989
vt 0.497065 0.812780
vt 1.298856 0.932287
vt 1.101846 0.812230
vt 0.011627 0.686605
vt 0.049524 0.499707
vt 0.087467 0.312828
vt 0.176998 0.146011
vn -0.0000 -1.0000 -0.0000
vn 0.4253 -0.8507 0.3090
vn -0.1625 -0.8507 0.5000
vn 0.7236 -0.4472 0.5257
vn 0.8506 -0.5257 -0.0000
vn -0.5257 -0.8507 -0.0000
vn -0.1625 -0.8507 -0.5000
vn 0.4253 -0.8507 -0.3090
vn 0.9511 -0.0000 0.3090
vn -0.2764 -0.4472 0.8506
vn 0.2629 -0.5257 0.8090
vn -0.0000 -0.0000 1.0000
vn -0.8944 -0.4472 -0.0000
vn -0.6882 -0.5257 0.5000
vn -0.9511 0.0000 0.3090
vn -0.2764 -0.4472 -0.8506
vn -0.6882 -0.5257 -0.5000
vn -0.5878 0.0000 -0.8090
vn 0.7236 -0.4472 -0.5257
vn 0.2629 -0.5257 -0.8090
vn 0.5878 0.0000 -0.8090
vn 0.5878 -0.0000 0.8090
vn -0.5878 -0.0000 0.8090
vn -0.9511 0.0000 -0.3090
vn -0.0000 0.0000 -1.0000
vn 0.9511 -0.0000 -0.3090
vn 0.2764 0.4472 0.8506
vn 0.6882 0.5257 0.5000
vn 0.1625 0.8507 0.5000
vn -0.7236 0.4472 0.5257
vn -0.2629 0.5257 0.8090
vn -0.4253 0.8507 0.3090
vn -0.7236 0.4472 -0.5257
vn -0.8506 0.5257 0.0000
vn -0.4253 0.8507 -0.3090
vn 0.2764 0.4472 -0.8506
vn -0.2629 0.5257 -0.8090
vn 0.1625 0.8507 -0.5000
vn 0.8944 0.4472 0.0000
vn 0.6882 0.5257 -0.5000
vn 0.5257 0.8507 0.0000
vn 0.0000 1.0000 0.0000
s 1
f 13/13/4 14/14/5 15/15/6
f 16/16/7 14/14/5 17/17/8
f 13/13/4 15/15/6 18/18/9
f 13/13/4 18/18/9 19/19/10
f 13/13/4 19/19/10 20/20/11
f 16/16/7 17/17/8 21/21/12
f 22/22/13 23/23/14 24/24/15
f 25/25/16 26/26/17 27/27/18
f 28/28/19 29/29/20 30/30/21
f 31/31/22 32/32/23 33/33/24
f 16/16/7 21/21/12 34/34/25
f 22/22/13 24/24/15 35/35/26
f 25/25/16 27/27/18 36/36/27
f 28/28/19 30/30/21 37/37/28
f 31/31/22 33/33/24 38/38/29
f 39/39/30 40/40/31 41/41/32
f 42/42/33 43/43/34 44/44/35
f 45/45/36 46/46/37 47/47/38
f 48/48/39 49/49/40 50/50/41
f 51/51/42 52/52/43 53/53/44
f 53/53/44 50/50/41 54/54/45
f 53/53/44 52/52/43 50/55/41
f 52/52/43 48/56/39 50/55/41
f 50/50/41 47/47/38 54/54/45
f 50/50/41 49/49/40 47/47/38
f 49/49/40 45/45/36 47/47/38
f 47/47/38 44/44/35 54/54/45
f 47/47/38 46/46/37 44/44/35
f 46/46/37 42/42/33 44/44/35
f 44/44/35 41/41/32 54/54/45
f 44/44/35 43/43/34 41/41/32
f 43/43/34 39/39/30 41/41/32
f 41/41/32 53/53/44 54/54/45
f 41/41/32 40/40/31 53/53/44
f 40/40/31 51/51/42 53/53/44
f 38/38/29 52/52/43 51/51/42
f 38/38/29 33/33/24 52/52/43
f 33/33/24 48/56/39 52/52/43
f 37/37/28 49/49/40 48/48/39
f 37/37/28 30/30/21 49/49/40
f 30/30/21 45/45/36 49/49/40
f 36/36/27 46/46/37 45/45/36
f 36/36/27 27/27/18 46/46/37
f 27/27/18 42/42/33 46/46/37
f 35/35/26 43/43/34 42/42/33
f 35/35/26 24/24/15 43/43/34
f 24/24/15 39/39/30 43/43/34
f 34/34/25 40/40/31 39/39/30
f 34/34/25 21/21/12 40/40/31
f 21/21/12 51/51/42 40/40/31
f 33/57/24 37/37/28 48/48/39
f 33/57/24 32/58/23 37/37/28
f 32/58/23 28/28/19 37/37/28
f 30/30/21 36/36/27 45/45/36
f 30/30/21 29/29/20 36/36/27
f 29/29/20 25/25/16 36/36/27
f 27/27/18 35/35/26 42/42/33
f 27/27/18 26/26/17 35/35/26
f 26/26/17 22/22/13 35/35/26
f 24/24/15 34/34/25 39/39/30
f 24/24/15 23/23/14 34/34/25
f 23/23/14 16/16/7 34/34/25
f 21/21/12 38/38/29 51/51/42
f 21/21/12 17/17/8 38/38/29
f 17/17/8 31/31/22 38/38/29
f 20/20/11 32/32/23 31/31/22
f 20/20/11 19/19/10 32/32/23
f 19/59/10 28/28/19 32/58/23
f 19/59/10 29/29/20 28/28/19
f 19/59/10 18/60/9 29/29/20
f 18/60/9 25/25/16 29/29/20
f 18/60/9 26/26/17 25/25/16
f 18/18/9 15/15/6 26/26/17
f 15/15/6 22/22/13 26/26/17
f 17/17/8 20/20/11 31/31/22
f 17/17/8 14/14/5 20/20/11
f 14/14/5 13/13/4 20/20/11
f 15/15/6 23/23/14 22/22/13
f 15/15/6 14/14/5 23/23/14
f 14/14/5 16/16/7 23/23/14
o Cylinder
v -5.955390 4.000000 -2.183483
v -5.760300 0.000000 -2.164269
v -5.955390 0.000000 -2.183484
v -5.760300 4.000000 -2.164268
v -5.572707 0.000000 -2.107363
v -5.572707 4.000000 -2.107362
v -5.399820 0.000000 -2.014953
v -5.399820 4.000000 -2.014952
v -5.248283 0.000000 -1.890591
v -5.248283 4.000000 -1.890590
v -5.123920 0.000000 -1.739054
v -5.123920 4.000000 -1.739053
v -5.031510 0.000000 -1.566167
v -5.031510 4.000000 -1.566166
v -4.974605 0.000000 -1.378574
v -4.974605 4.000000 -1.378573
v -4.955390 0.000000 -1.183484
v -4.955390 4.000000 -1.183483
v -4.974605 0.000000 -0.988394
v -4.974605 4.000000 -0.988393
v -5.031510 0.000000 -0.800801
v -5.031510 4.000000 -0.800800
v -5.123920 0.000000 -0.627914
v -5.123920 4.000000 -0.627913
v -5.248283 0.000000 -0.476377
v -5.248283 4.000000 -0.476376
v -5.399820 0.000000 -0.352014
v -5.399820 4.000000 -0.352013
v -5.572707 0.000000 -0.259604
v -5.572707 4.000000 -0.259603
v -5.760300 0.000000 -0.202699
v -5.760300 4.000000 -0.202698
v -5.955390 0.000000 -0.183484
v -5.955390 4.000000 -0.183483
v -6.150481 0.000000 -0.202699
v -6.150481 4.000000 -0.202698
v -6.338074 0.000000 -0.259605
v -6.338074 4.000000 -0.259604
v -6.510961 0.000000 -0.352015
v -6.510961 4.000000 -0.352014
v -6.662497 0.000000 -0.476377
v -6.662497 4.000000 -0.476376
v -6.786860 0.000000 -0.627914
v -6.786860 4.000000 -0.627913
v -6.879270 0.000000 -0.800801
v -6.879270 4.000000 -0.800800
v -6.936175 0.000000 -0.988394
v -6.936175 4.000000 -0.988393
v -6.955390 0.000000 -1.183485
v -6.955390 4.000000 -1.183484
v -6.936175 0.000000 -1.378575
v -6.936175 4.000000 -1.378574
v -6.879269 0.000000 -1.566168
v -6.879269 4.000000 -1.566167
v -6.786859 0.000000 -1.739055
v -6.786859 4.000000 -1.739054
v -6.662496 0.000000 -1.890592
v -6.662496 4.000000 -1.890591
v -6.510959 0.000000 -2.014954
v -6.510959 4.000000 -2.014953
v -6.338072 0.000000 -2.107364
v -6.338072 4.000000 -2.107363
v -6.150479 0.000000 -2.164269
v -6.150479 4.000000 -2.164268
vt 0.347903 1.543332
vt 0.038284 -0.089593
vt 0.053670 -0.120584
vt 0.353166 1.574323
vt 0.022522 -0.067916
vt 0.374881 1.596000
vt 0.006524 -0.056386
vt 1.435587 1.607530
vt 0.990436 -0.055446
vt 1.006524 -0.056386
vt 0.541712 1.608470
vt 0.974410 -0.065132
vt 0.612311 1.598784
vt 0.958596 -0.085072
vt 0.638740 1.578844
vt 0.943135 -0.114500
vt 0.645996 1.549416
vt 0.928159 -0.152285
vt 0.644728 1.511631
vt 0.913790 -0.196974
vt 0.639017 1.466942
vt 0.900151 -0.246851
vt 0.630633 1.417065
vt 0.887375 -0.299998
vt 0.620440 1.363917
vt 0.875633 -0.354374
vt 0.608902 1.309542
vt 0.865177 -0.407888
vt 0.596294 1.256028
vt 0.856427 -0.458484
vt 0.582797 1.205431
vt 0.850153 -0.504218
vt 0.568548 1.159698
vt 0.847903 -0.543332
vt 0.553670 1.120584
vt 0.853166 -0.574323
vt 0.538284 1.089592
vt 0.874882 -0.596000
vt 0.522522 1.067916
vt 0.935588 -0.607530
vt 0.506524 1.056386
vt 1.041713 -0.608470
vt 0.490436 1.055446
vt 0.112311 -0.598784
vt 0.041713 -0.608470
vt 0.474410 1.065132
vt 0.138740 -0.578843
vt 0.458596 1.085072
vt 0.145996 -0.549415
vt 0.443135 1.114500
vt 0.144728 -0.511631
vt 0.428159 1.152285
vt 0.139017 -0.466941
vt 0.413790 1.196975
vt 0.130633 -0.417064
vt 0.400151 1.246851
vt 0.120440 -0.363917
vt 0.387375 1.299999
vt 0.108902 -0.309541
vt 0.375633 1.354374
vt 0.096294 -0.256027
vt 0.365177 1.407889
vt 0.082797 -0.205431
vt 0.356427 1.458485
vt 0.068548 -0.159697
vt 0.350153 1.504219
vt 1.145996 -0.549415
vt 0.435587 1.607530
vt 1.068548 -0.159697
vt 1.053670 -0.120584
vt 1.038284 -0.089593
vt 1.022522 -0.067916
vt 1.112311 -0.598784
vt 1.138740 -0.578843
vt 1.144728 -0.511631
vt 1.139017 -0.466941
vt 1.130633 -0.417064
vt 1.120440 -0.363917
vt 1.108902 -0.309541
vt 1.096294 -0.256027
vt 1.082797 -0.205431
vn 0.0000 0.6857 -0.7279
vn 0.1420 -0.6857 -0.7139
vn -0.0000 -0.6857 -0.7279
vn 0.1420 0.6857 -0.7139
vn 0.2786 -0.6857 -0.6725
vn 0.2786 0.6857 -0.6725
vn 0.4044 -0.6857 -0.6052
vn 0.4044 0.6857 -0.6052
vn 0.5147 -0.6857 -0.5147
vn 0.5147 0.6857 -0.5147
vn 0.6052 -0.6857 -0.4044
vn 0.6052 0.6857 -0.4044
vn 0.6725 -0.6857 -0.2785
vn 0.6725 0.6857 -0.2785
vn 0.7139 -0.6857 -0.1420
vn 0.7139 0.6857 -0.1420
vn 0.7279 -0.6857 -0.0000
vn 0.7279 0.6857 0.0000
vn 0.7139 -0.6857 0.1420
vn 0.7139 0.6857 0.1420
vn 0.6725 -0.6857 0.2785
vn 0.6725 0.6857 0.2785
vn 0.6052 -0.6857 0.4044
vn 0.6052 0.6857 0.4044
vn 0.5147 -0.6857 0.5147
vn 0.5147 0.6857 0.5147
vn 0.4044 -0.6857 0.6052
vn 0.4044 0.6857 0.6052
vn 0.2785 -0.6857 0.6725
vn 0.2785 0.6857 0.6725
vn 0.1420 -0.6857 0.7139
vn 0.1420 0.6857 0.7139
vn 0.0000 -0.6857 0.7279
vn 0.0000 0.6857 0.7279
vn -0.1420 -0.6857 0.7139
vn -0.1420 0.6857 0.7139
vn -0.2786 -0.6857 0.6725
vn -0.2786 0.6857 0.6725
vn -0.4044 -0.6857 0.6052
vn -0.4044 0.6857 0.6052
vn -0.5147 -0.6857 0.5147
vn -0.5147 0.6857 0.5147
vn -0.6052 -0.6857 0.4044
vn -0.6052 0.6857 0.4044
vn -0.6725 -0.6857 0.2785
vn -0.6725 0.6857 0.2785
vn -0.7139 -0.6857 0.1420
vn -0.7139 0.6857 0.1420
vn -0.7279 -0.6857 -0.0000
vn -0.7279 0.6857 -0.0000
vn -0.7139 -0.6857 -0.1420
vn -0.7139 0.6857 -0.1420
vn -0.6725 -0.6857 -0.2786
vn -0.6725 0.6857 -0.2786
vn -0.6052 -0.6857 -0.4044
vn -0.6052 0.6857 -0.4044
vn -0.5147 -0.6857 -0.5147
vn -0.5147 0.6857 -0.5147
vn -0.4044 -0.6857 -0.6052
vn -0.4044 0.6857 -0.6052
vn -0.2785 -0.6857 -0.6725
vn -0.2785 0.6857 -0.6725
vn -0.1420 -0.6857 -0.7139
vn -0.1420 0.6857 -0.7139
s 1
f 55/61/46 56/62/47 57/63/48
f 58/64/49 59/65/50 56/62/47
f 60/66/51 61/67/52 59/65/50
f 62/68/53 63/69/54 61/70/52
f 64/71/55 65/72/56 63/69/54
f 66/73/57 67/74/58 65/72/56
f 68/75/59 69/76/60 67/74/58
f 70/77/61 71/78/62 69/76/60
f 72/79/63 73/80/64 71/78/62
f 74/81/65 75/82/66 73/80/64
f 76/83/67 77/84/68 75/82/66
f 78/85/69 79/86/70 77/84/68
f 80/87/71 81/88/72 79/86/70
f 82/89/73 83/90/74 81/88/72
f 84/91/75 85/92/76 83/90/74
f 86/93/77 87/94/78 85/92/76
f 88/95/79 89/96/80 87/94/78
f 90/97/81 91/98/82 89/96/80
f 92/99/83 93/100/84 91/98/82
f 94/101/85 95/102/86 93/100/84
f 96/103/87 97/104/88 95/105/86
f 98/106/89 99/107/90 97/104/88
f 100/108/91 101/109/92 99/107/90
f 102/110/93 103/111/94 101/109/92
f 104/112/95 105/113/96 103/111/94
f 106/114/97 107/115/98 105/113/96
f 108/116/99 109/117/100 107/115/98
f 110/118/101 111/119/102 109/117/100
f 112/120/103 113/121/104 111/119/102
f 114/122/105 115/123/106 113/121/104
f 108/116/99 92/99/83 76/83/67
f 116/124/107 117/125/108 115/123/106
f 118/126/109 57/63/48 117/125/108
f 69/76/60 85/92/76 101/127/92
f 55/61/46 58/64/49 56/62/47
f 58/64/49 60/66/51 59/65/50
f 60/66/51 62/128/53 61/67/52
f 62/68/53 64/71/55 63/69/54
f 64/71/55 66/73/57 65/72/56
f 66/73/57 68/75/59 67/74/58
f 68/75/59 70/77/61 69/76/60
f 70/77/61 72/79/63 71/78/62
f 72/79/63 74/81/65 73/80/64
f 74/81/65 76/83/67 75/82/66
f 76/83/67 78/85/69 77/84/68
f 78/85/69 80/87/71 79/86/70
f 80/87/71 82/89/73 81/88/72
f 82/89/73 84/91/75 83/90/74
f 84/91/75 86/93/77 85/92/76
f 86/93/77 88/95/79 87/94/78
f 88/95/79 90/97/81 89/96/80
f 90/97/81 92/99/83 91/98/82
f 92/99/83 94/101/85 93/100/84
f 94/101/85 96/103/87 95/102/86
f 96/103/87 98/106/89 97/104/88
f 98/106/89 100/108/91 99/107/90
f 100/108/91 102/110/93 101/109/92
f 102/110/93 104/112/95 103/111/94
f 104/112/95 106/114/97 105/113/96
f 106/114/97 108/116/99 107/115/98
f 108/116/99 110/118/101 109/117/100
f 110/118/101 112/120/103 111/119/102
f 112/120/103 114/122/105 113/121/104
f 114/122/105 116/124/107 115/123/106
f 60/66/51 58/64/49 55/61/46
f 55/61/46 118/126/109 60/66/51
f 118/126/109 116/124/107 60/66/51
f 116/124/107 114/122/105 112/120/103
f 112/120/103 110/118/101 108/116/99
f 108/116/99 106/114/97 104/112/95
f 104/112/95 102/110/93 108/116/99
f 102/110/93 100/108/91 108/116/99
f 100/108/91 98/106/89 92/99/83
f 98/106/89 96/103/87 92/99/83
f 96/103/87 94/101/85 92/99/83
f 92/99/83 90/97/81 88/95/79
f 88/95/79 86/93/77 84/91/75
f 84/91/75 82/89/73 80/87/71
f 80/87/71 78/85/69 76/83/67
f 76/83/67 74/81/65 72/79/63
f 72/79/63 70/77/61 76/83/67
f 70/77/61 68/75/59 76/83/67
f 68/75/59 66/73/57 64/71/55
f 64/71/55 62/128/53 60/66/51
f 116/124/107 112/120/103 60/66/51
f 112/120/103 108/116/99 60/66/51
f 92/99/83 88/95/79 76/83/67
f 88/95/79 84/91/75 76/83/67
f 84/91/75 80/87/71 76/83/67
f 68/75/59 64/71/55 76/83/67
f 64/71/55 60/66/51 76/83/67
f 108/116/99 100/108/91 92/99/83
f 60/66/51 108/116/99 76/83/67
f 116/124/107 118/126/109 117/125/108
f 118/126/109 55/61/46 57/63/48
f 117/129/108 57/130/48 56/131/47
f 56/131/47 59/132/50 61/70/52
f 61/70/52 63/69/54 65/72/56
f 65/72/56 67/74/58 61/70/52
f 67/74/58 69/76/60 61/70/52
f 69/76/60 71/78/62 73/80/64
f 73/80/64 75/82/66 69/76/60
f 75/82/66 77/84/68 69/76/60
f 77/84/68 79/86/70 85/92/76
f 79/86/70 81/88/72 85/92/76
f 81/88/72 83/90/74 85/92/76
f 85/92/76 87/94/78 89/96/80
f 89/96/80 91/98/82 93/100/84
f 93/100/84 95/102/86 97/133/88
f 97/133/88 99/134/90 101/127/92
f 101/127/92 103/135/94 105/136/96
f 105/136/96 107/137/98 109/138/100
f 109/138/100 111/139/102 117/129/108
f 111/139/102 113/140/104 117/129/108
f 113/140/104 115/141/106 117/129/108
f 117/129/108 56/131/47 61/70/52
f 85/92/76 89/96/80 101/127/92
f 89/96/80 93/100/84 101/127/92
f 93/100/84 97/133/88 101/127/92
f 101/127/92 105/136/96 117/129/108
f 105/136/96 109/138/100 117/129/108
f 117/129/108 61/70/52 69/76/60
f 69/76/60 77/84/68 85/92/76
f 117/129/108 69/76/60 101/127/92
o Cube_Cube.002
v -4.819811 1.999999 5.863316
v -4.819811 -0.000001 3.863315
v -4.819811 -0.000001 5.863315
v -4.819811 1.999999 3.863315
v -2.819811 -0.000001 3.863315
v -2.819811 1.999999 3.863315
v -2.819811 -0.000001 5.863315
v -2.819811 1.999999 5.863316
vt 0.568343 1.500000
vt 1.568343 0.500000
vt 0.568343 0.500000
vt 0.090095 1.500000
vt 1.090095 0.500000
vt 0.090095 0.500000
vt 0.568343 1.500000
vt -0.431657 0.500000
vt 0.568343 0.500000
vt 0.090095 1.500000
vt -0.909905 0.500000
vt 0.090095 0.500000
vt 1.090095 0.568343
vt 0.090095 -0.431657
vt 0.090095 0.568343
vt -0.909905 0.568343
vt 0.090095 -0.431657
vt 0.090095 0.568343
vt 1.568343 1.500000
vt 1.090095 1.500000
vt -0.431657 1.500000
vt -0.909905 1.500000
vt 1.090095 -0.431657
vt -0.909905 -0.431657
vn -0.5774 0.5774 0.5774
vn -0.5774 -0.5774 -0.5774
vn -0.5774 -0.5774 0.5774
vn -0.5774 0.5774 -0.5774
vn 0.5774 -0.5774 -0.5774
vn 0.5774 0.5774 -0.5774
vn 0.5774 -0.5774 0.5774
vn 0.5774 0.5774 0.5774
s 1
f 119/142/110 120/143/111 121/144/112
f 122/145/113 123/146/114 120/147/111
f 124/148/115 125/149/116 123/150/114
f 126/151/117 121/152/112 125/153/116
f 123/154/114 121/155/112 120/156/111
f 122/157/113 126/158/117 124/159/115
f 119/142/110 122/160/113 120/143/111
f 122/145/113 124/161/115 123/146/114
f 124/148/115 126/162/117 125/149/116
f 126/151/117 119/163/110 121/152/112
f 123/154/114 125/164/116 121/155/112
f 122/157/113 119/165/110 126/158/117
